<mxfile host="app.diagrams.net" modified="2023-08-11T01:44:40.267Z" agent="Mozilla/5.0 (Macintosh; Intel Mac OS X 10_15_7) AppleWebKit/537.36 (KHTML, like Gecko) Chrome/115.0.0.0 Safari/537.36" version="21.1.1" etag="sjDxUU9XhygS0PVaLhB_" type="github">
  <diagram name="第 1 页" id="pD7b_54SS25wpoOdnTd-">
    <mxGraphModel>
      <root>
        <mxCell id="0" />
        <mxCell id="1" parent="0" />
      </root>
    </mxGraphModel>
  </diagram>
</mxfile>
